<svg id="visual" viewBox="0 0 1920 1080" width="1920" height="1080" xmlns="http://www.w3.org/2000/svg" xmlns:xlink="http://www.w3.org/1999/xlink" version="1.1"><rect x="0" y="0" width="1920" height="1080" fill="#001220"></rect><path d="M0 326L45.7 318.7C91.3 311.3 182.7 296.7 274.2 316.5C365.7 336.3 457.3 390.7 548.8 392.7C640.3 394.7 731.7 344.3 823 327.5C914.3 310.7 1005.7 327.3 1097 347.2C1188.3 367 1279.7 390 1371.2 385.5C1462.7 381 1554.3 349 1645.8 331.3C1737.3 313.7 1828.7 310.3 1874.3 308.7L1920 307L1920 0L1874.3 0C1828.7 0 1737.3 0 1645.8 0C1554.3 0 1462.7 0 1371.2 0C1279.7 0 1188.3 0 1097 0C1005.7 0 914.3 0 823 0C731.7 0 640.3 0 548.8 0C457.3 0 365.7 0 274.2 0C182.7 0 91.3 0 45.7 0L0 0Z" fill="#fa7268"></path><path d="M0 247L45.7 246.2C91.3 245.3 182.7 243.7 274.2 254.8C365.7 266 457.3 290 548.8 305C640.3 320 731.7 326 823 327.7C914.3 329.3 1005.7 326.7 1097 316.5C1188.3 306.3 1279.7 288.7 1371.2 275C1462.7 261.3 1554.3 251.7 1645.8 255.5C1737.3 259.3 1828.7 276.7 1874.3 285.3L1920 294L1920 0L1874.3 0C1828.7 0 1737.3 0 1645.8 0C1554.3 0 1462.7 0 1371.2 0C1279.7 0 1188.3 0 1097 0C1005.7 0 914.3 0 823 0C731.7 0 640.3 0 548.8 0C457.3 0 365.7 0 274.2 0C182.7 0 91.3 0 45.7 0L0 0Z" fill="#ef5f67"></path><path d="M0 160L45.7 166C91.3 172 182.7 184 274.2 189C365.7 194 457.3 192 548.8 197.2C640.3 202.3 731.7 214.7 823 224.7C914.3 234.7 1005.7 242.3 1097 231.2C1188.3 220 1279.7 190 1371.2 184.2C1462.7 178.3 1554.3 196.7 1645.8 217C1737.3 237.3 1828.7 259.7 1874.3 270.8L1920 282L1920 0L1874.3 0C1828.7 0 1737.3 0 1645.8 0C1554.3 0 1462.7 0 1371.2 0C1279.7 0 1188.3 0 1097 0C1005.7 0 914.3 0 823 0C731.7 0 640.3 0 548.8 0C457.3 0 365.7 0 274.2 0C182.7 0 91.3 0 45.7 0L0 0Z" fill="#e34c67"></path><path d="M0 135L45.7 145.3C91.3 155.7 182.7 176.3 274.2 181.7C365.7 187 457.3 177 548.8 166.2C640.3 155.3 731.7 143.7 823 147.8C914.3 152 1005.7 172 1097 180.3C1188.3 188.7 1279.7 185.3 1371.2 174.7C1462.7 164 1554.3 146 1645.8 145.5C1737.3 145 1828.7 162 1874.3 170.5L1920 179L1920 0L1874.3 0C1828.7 0 1737.3 0 1645.8 0C1554.3 0 1462.7 0 1371.2 0C1279.7 0 1188.3 0 1097 0C1005.7 0 914.3 0 823 0C731.7 0 640.3 0 548.8 0C457.3 0 365.7 0 274.2 0C182.7 0 91.3 0 45.7 0L0 0Z" fill="#d53867"></path><path d="M0 104L45.7 99.8C91.3 95.7 182.7 87.3 274.2 89.2C365.7 91 457.3 103 548.8 106.8C640.3 110.7 731.7 106.3 823 94.8C914.3 83.3 1005.7 64.7 1097 55.3C1188.3 46 1279.7 46 1371.2 55C1462.7 64 1554.3 82 1645.8 91.2C1737.3 100.3 1828.7 100.7 1874.3 100.8L1920 101L1920 0L1874.3 0C1828.7 0 1737.3 0 1645.8 0C1554.3 0 1462.7 0 1371.2 0C1279.7 0 1188.3 0 1097 0C1005.7 0 914.3 0 823 0C731.7 0 640.3 0 548.8 0C457.3 0 365.7 0 274.2 0C182.7 0 91.3 0 45.7 0L0 0Z" fill="#c62368"></path></svg>